<svg width="128" height="64" xmlns="http://www.w3.org/2000/svg">
  <!-- Player Knight -->
  <rect x="0" y="0" width="32" height="32" fill="#FFD700"/>
  <circle cx="16" cy="16" r="10" fill="#FFA000"/>
  <text x="16" y="20" text-anchor="middle" font-size="8" fill="#000">K</text>
  
  <!-- Player Mage -->
  <rect x="32" y="0" width="32" height="32" fill="#9C27B0"/>
  <circle cx="48" cy="16" r="10" fill="#7B1FA2"/>
  <text x="48" y="20" text-anchor="middle" font-size="8" fill="#FFF">M</text>
  
  <!-- Player Archer -->
  <rect x="64" y="0" width="32" height="32" fill="#4CAF50"/>
  <circle cx="80" cy="16" r="10" fill="#388E3C"/>
  <text x="80" y="20" text-anchor="middle" font-size="8" fill="#FFF">A</text>
  
  <!-- Einar (Companion) -->
  <rect x="0" y="32" width="32" height="32" fill="#2E7D32"/>
  <circle cx="16" cy="48" r="10" fill="#1B5E20"/>
  <text x="16" y="52" text-anchor="middle" font-size="8" fill="#FFF">E</text>
  
  <!-- Mira (Companion) -->
  <rect x="32" y="32" width="32" height="32" fill="#FF5722"/>
  <circle cx="48" cy="48" r="10" fill="#D84315"/>
  <text x="48" y="52" text-anchor="middle" font-size="8" fill="#FFF">M</text>
  
  <!-- Sorin (Companion) -->
  <rect x="64" y="32" width="32" height="32" fill="#3F51B5"/>
  <circle cx="80" cy="48" r="10" fill="#303F9F"/>
  <text x="80" y="52" text-anchor="middle" font-size="8" fill="#FFF">S</text>
  
  <!-- Tamara (Companion) -->
  <rect x="96" y="32" width="32" height="32" fill="#FF9800"/>
  <circle cx="112" cy="48" r="10" fill="#F57C00"/>
  <text x="112" y="52" text-anchor="middle" font-size="8" fill="#FFF">T</text>
</svg>
