<svg width="384" height="128" xmlns="http://www.w3.org/2000/svg">
  <!-- Grass Tile (0,0) -->
  <g transform="translate(0,0)">
    <polygon points="32,8 56,20 56,44 32,56 8,44 8,20" fill="#4CAF50" stroke="#388E3C" stroke-width="1"/>
    <circle cx="20" cy="25" r="2" fill="#FFEB3B"/>
    <circle cx="44" cy="35" r="2" fill="#FFEB3B"/>
    <circle cx="32" cy="40" r="1" fill="#FF9800"/>
  </g>
  
  <!-- Forest Tile (64,0) -->
  <g transform="translate(64,0)">
    <polygon points="32,8 56,20 56,44 32,56 8,44 8,20" fill="#2E7D32" stroke="#1B5E20" stroke-width="1"/>
    <polygon points="25,35 30,15 35,35" fill="#0D2818"/>
    <polygon points="35,40 40,20 45,40" fill="#0D2818"/>
    <circle cx="20" cy="30" r="1" fill="#795548"/>
  </g>
  
  <!-- Stone Tile (128,0) -->
  <g transform="translate(128,0)">
    <polygon points="32,8 56,20 56,44 32,56 8,44 8,20" fill="#757575" stroke="#424242" stroke-width="1"/>
    <rect x="15" y="22" width="8" height="4" fill="#616161"/>
    <rect x="25" y="18" width="6" height="3" fill="#616161"/>
    <rect x="35" y="25" width="10" height="5" fill="#616161"/>
    <rect x="20" y="35" width="12" height="6" fill="#616161"/>
  </g>
  
  <!-- Water/Swamp Tile (192,0) -->
  <g transform="translate(192,0)">
    <polygon points="32,8 56,20 56,44 32,56 8,44 8,20" fill="#1976D2" stroke="#0D47A1" stroke-width="1"/>
    <ellipse cx="25" cy="25" rx="4" ry="2" fill="#1565C0" opacity="0.7"/>
    <ellipse cx="40" cy="35" rx="3" ry="1" fill="#1565C0" opacity="0.7"/>
    <circle cx="30" cy="40" r="1" fill="#81C784" opacity="0.8"/>
  </g>
  
  <!-- Corrupted Tile (256,0) -->
  <g transform="translate(256,0)">
    <polygon points="32,8 56,20 56,44 32,56 8,44 8,20" fill="#311B92" stroke="#1A237E" stroke-width="1"/>
    <path d="M20,25 Q32,15 44,25 Q32,35 20,25" fill="#7C4DFF" opacity="0.8"/>
    <path d="M15,35 Q32,25 49,35 Q32,45 15,35" fill="#7C4DFF" opacity="0.6"/>
    <circle cx="32" cy="30" r="2" fill="#E1BEE7"/>
  </g>
  
  <!-- Void Tile (320,0) -->
  <g transform="translate(320,0)">
    <polygon points="32,8 56,20 56,44 32,56 8,44 8,20" fill="#000000" stroke="#424242" stroke-width="1"/>
    <circle cx="32" cy="30" r="1" fill="#9E9E9E" opacity="0.3"/>
  </g>
  
  <!-- Village Tile (0,64) -->
  <g transform="translate(0,64)">
    <polygon points="32,8 56,20 56,44 32,56 8,44 8,20" fill="#8BC34A" stroke="#689F38" stroke-width="1"/>
    <rect x="26" y="22" width="12" height="10" fill="#8D6E63"/>
    <polygon points="24,22 32,16 40,22" fill="#5D4037"/>
    <rect x="29" y="28" width="3" height="4" fill="#3E2723"/>
  </g>
  
  <!-- Ruins Tile (64,64) -->
  <g transform="translate(64,64)">
    <polygon points="32,8 56,20 56,44 32,56 8,44 8,20" fill="#616161" stroke="#424242" stroke-width="1"/>
    <rect x="20" y="18" width="6" height="12" fill="#757575"/>
    <rect x="35" y="25" width="8" height="15" fill="#757575"/>
    <rect x="15" y="35" width="4" height="8" fill="#757575"/>
  </g>
</svg>
