<svg width="128" height="64" xmlns="http://www.w3.org/2000/svg">
  <!-- Hollow Caretaker -->
  <rect x="0" y="0" width="32" height="32" fill="#424242"/>
  <circle cx="16" cy="16" r="12" fill="#212121"/>
  <circle cx="12" cy="12" r="2" fill="#FF5722"/>
  <circle cx="20" cy="12" r="2" fill="#FF5722"/>
  
  <!-- Forsaken Knight -->
  <rect x="32" y="0" width="32" height="32" fill="#37474F"/>
  <rect x="40" y="8" width="16" height="16" fill="#263238"/>
  <rect x="44" y="12" width="8" height="8" fill="#B71C1C"/>
  
  <!-- Swamp Creature -->
  <rect x="64" y="0" width="32" height="32" fill="#2E7D32"/>
  <circle cx="80" cy="16" r="14" fill="#1B5E20"/>
  <rect x="74" y="20" width="12" height="4" fill="#4CAF50"/>
  <rect x="70" y="24" width="20" height="2" fill="#4CAF50"/>
  
  <!-- Ghost Echo -->
  <rect x="96" y="0" width="32" height="32" fill="#9E9E9E" opacity="0.7"/>
  <circle cx="112" cy="16" r="10" fill="#616161" opacity="0.8"/>
  <circle cx="108" cy="12" r="2" fill="#F44336"/>
  <circle cx="116" cy="12" r="2" fill="#F44336"/>
  
  <!-- Dragon (2x2 size) -->
  <rect x="0" y="32" width="64" height="32" fill="#B71C1C"/>
  <circle cx="32" cy="48" r="20" fill="#8F0000"/>
  <circle cx="24" cy="42" r="3" fill="#FFD600"/>
  <circle cx="40" cy="42" r="3" fill="#FFD600"/>
  <polygon points="32,35 38,45 26,45" fill="#FF5722"/>
</svg>
